<svg xmlns="http://www.w3.org/2000/svg" viewBox="0 0 424.07 130.24"><defs><style>.cls-1{fill:#3d6580;}.cls-2{fill:#f9b22b;fill-rule:evenodd;}</style></defs><title>Culture accessible genève</title><path class="cls-1" d="M96.88,56.88a9.43,9.43,0,0,1,2.9,1.73l-1.24,1.62a8,8,0,0,0-2.28-1.32,7.8,7.8,0,0,0-2.67-.43,6,6,0,0,0-5,2.46q-1.88,2.46-1.88,7.15t1.86,7a6.06,6.06,0,0,0,5,2.35A7.47,7.47,0,0,0,96.26,77a10.11,10.11,0,0,0,2.46-1.41l1.2,1.67a9.63,9.63,0,0,1-6.41,2.39,9.07,9.07,0,0,1-5-1.37,8.93,8.93,0,0,1-3.31-4A14.81,14.81,0,0,1,84,68.14a15.31,15.31,0,0,1,1.17-6.21,9.42,9.42,0,0,1,3.31-4.12,8.6,8.6,0,0,1,5-1.45A10.14,10.14,0,0,1,96.88,56.88Z" transform="translate(-0.28 -0.36)"/><path class="cls-1" d="M121.09,79.15H119l-0.13-4q-2.65,4.44-7.3,4.44a6.06,6.06,0,0,1-4.67-1.77,7.16,7.16,0,0,1-1.64-5.06v-16h2.48V72.53a5.62,5.62,0,0,0,1.09,3.82,4.22,4.22,0,0,0,3.31,1.22q3.88,0,6.53-4.57V56.82h2.48V79.15Z" transform="translate(-0.28 -0.36)"/><path class="cls-1" d="M131,78.55a4.34,4.34,0,0,1-1-3.16V47.73l2.48-.3V75.31q0,2.18,1.79,2.18a3.61,3.61,0,0,0,1.54-.3L136.42,79a5.65,5.65,0,0,1-2.56.6A3.85,3.85,0,0,1,131,78.55Z" transform="translate(-0.28 -0.36)"/><path class="cls-1" d="M152.44,78.21a8.35,8.35,0,0,1-4.7,1.41,5.3,5.3,0,0,1-4-1.52,6.08,6.08,0,0,1-1.45-4.38V58.83h-3.76v-2h3.76V51.48l2.48-.3v5.64h5.76l-0.3,2h-5.47V73.6a4.45,4.45,0,0,0,.81,2.92,3.06,3.06,0,0,0,2.48,1,6.8,6.8,0,0,0,3.42-1Z" transform="translate(-0.28 -0.36)"/><path class="cls-1" d="M172.5,79.15h-2.13l-0.13-4q-2.65,4.44-7.3,4.44a6.06,6.06,0,0,1-4.67-1.77,7.16,7.16,0,0,1-1.64-5.06v-16h2.48V72.53a5.62,5.62,0,0,0,1.09,3.82,4.22,4.22,0,0,0,3.31,1.22q3.88,0,6.53-4.57V56.82h2.48V79.15Z" transform="translate(-0.28 -0.36)"/><path class="cls-1" d="M192.45,56.61L192,59a7.43,7.43,0,0,0-2-.26,4.54,4.54,0,0,0-3.65,1.64A13.49,13.49,0,0,0,184,65.49V79.15h-2.48V56.82h2.13l0.21,5a8.92,8.92,0,0,1,2.46-4.12,5.71,5.71,0,0,1,3.86-1.34A8.21,8.21,0,0,1,192.45,56.61Z" transform="translate(-0.28 -0.36)"/><path class="cls-1" d="M212,68.95h-14.9q0.21,4.35,2.07,6.47A6.19,6.19,0,0,0,204,77.53a8.34,8.34,0,0,0,3.1-.53A13.58,13.58,0,0,0,210,75.31l1.15,1.58a12.65,12.65,0,0,1-3.42,2,10.61,10.61,0,0,1-3.89.68,8.56,8.56,0,0,1-7-3q-2.52-3-2.52-8.41A16.37,16.37,0,0,1,195.5,62a9.32,9.32,0,0,1,3.12-4.14,7.82,7.82,0,0,1,4.72-1.47,7.7,7.7,0,0,1,6.49,2.88Q212,62.12,212,67.15,212,68.09,212,68.95Zm-2.35-2.56a9.72,9.72,0,0,0-1.56-5.87,5.39,5.39,0,0,0-4.63-2.11,5.47,5.47,0,0,0-4.48,2.13q-1.71,2.14-1.88,6.49h12.55V66.38Z" transform="translate(-0.28 -0.36)"/><path class="cls-1" d="M246.87,75.12a2.59,2.59,0,0,0,1.3,1L247,79.71a7,7,0,0,1-3.14-.94A4.8,4.8,0,0,1,242,76.42,7.23,7.23,0,0,1,239.14,79a8.78,8.78,0,0,1-3.86.83,7.3,7.3,0,0,1-5.34-1.92,6.73,6.73,0,0,1-2-5,6.52,6.52,0,0,1,2.67-5.62q2.67-1.94,7.62-1.94h2.82V64a3.9,3.9,0,0,0-1-3.05,4.85,4.85,0,0,0-3.22-.87,19.08,19.08,0,0,0-6,1.2l-1.28-3.71a22.83,22.83,0,0,1,8.2-1.62q8.67,0,8.67,7.77v9.48A3.61,3.61,0,0,0,246.87,75.12ZM241.08,73V68.48h-2.26q-5.29,0-5.29,3.93a3.62,3.62,0,0,0,.81,2.52,3.06,3.06,0,0,0,2.39.9A4.83,4.83,0,0,0,241.08,73Z" transform="translate(-0.28 -0.36)"/><path class="cls-1" d="M266.16,56.56a10.66,10.66,0,0,1,3.35,2l-2.43,3.29a8.85,8.85,0,0,0-2.22-1.24,6.9,6.9,0,0,0-2.35-.38q-5.08,0-5.08,7.73,0,3.93,1.32,5.66a4.45,4.45,0,0,0,3.76,1.73,6.11,6.11,0,0,0,2.2-.38,14.35,14.35,0,0,0,2.37-1.24l2.43,3.46a11.25,11.25,0,0,1-7.3,2.6,10.78,10.78,0,0,1-5.64-1.43,9.37,9.37,0,0,1-3.67-4.08,14.16,14.16,0,0,1-1.28-6.23,14.88,14.88,0,0,1,1.28-6.34,9.81,9.81,0,0,1,3.67-4.27,10.23,10.23,0,0,1,5.59-1.52A11.67,11.67,0,0,1,266.16,56.56Z" transform="translate(-0.28 -0.36)"/><path class="cls-1" d="M285.72,56.56a10.66,10.66,0,0,1,3.35,2l-2.43,3.29a8.85,8.85,0,0,0-2.22-1.24,6.9,6.9,0,0,0-2.35-.38Q277,60.24,277,68q0,3.93,1.32,5.66a4.45,4.45,0,0,0,3.76,1.73,6.11,6.11,0,0,0,2.2-.38,14.35,14.35,0,0,0,2.37-1.24l2.43,3.46a11.25,11.25,0,0,1-7.3,2.6,10.78,10.78,0,0,1-5.64-1.43,9.37,9.37,0,0,1-3.67-4.08,14.16,14.16,0,0,1-1.28-6.23,14.88,14.88,0,0,1,1.28-6.34,9.81,9.81,0,0,1,3.67-4.27,10.23,10.23,0,0,1,5.59-1.52A11.67,11.67,0,0,1,285.72,56.56Z" transform="translate(-0.28 -0.36)"/><path class="cls-1" d="M310.59,69.54H296.42q0.25,3.29,1.71,4.7A5.28,5.28,0,0,0,302,75.65a8,8,0,0,0,2.82-.49,13.14,13.14,0,0,0,2.82-1.52l2.26,3.12a13,13,0,0,1-8.37,3q-5.17,0-8-3.16T290.74,68a15.46,15.46,0,0,1,1.2-6.21,9.86,9.86,0,0,1,3.46-4.31,10.3,10.3,0,0,1,12.72,1.45q2.6,3,2.6,8.39Q310.72,67.75,310.59,69.54Zm-5.29-3.8q0-5.93-4.4-5.93a3.73,3.73,0,0,0-3.14,1.47A8.77,8.77,0,0,0,296.42,66h8.88V65.74Z" transform="translate(-0.28 -0.36)"/><path class="cls-1" d="M330.79,58.61l-2.13,3.2A10.62,10.62,0,0,0,323,60a4.39,4.39,0,0,0-2.52.62,1.91,1.91,0,0,0-.9,1.64,2.08,2.08,0,0,0,.38,1.28,3.5,3.5,0,0,0,1.39,1,23.11,23.11,0,0,0,3,1,13,13,0,0,1,5.44,2.6,5.83,5.83,0,0,1,1.77,4.53,6.07,6.07,0,0,1-2.73,5.27,11.61,11.61,0,0,1-6.79,1.9,14.35,14.35,0,0,1-5.06-.85A12.27,12.27,0,0,1,313,76.59l2.73-3.08a10.08,10.08,0,0,0,6.15,2.22,5.2,5.2,0,0,0,2.92-.73,2.29,2.29,0,0,0,1.09-2,2.66,2.66,0,0,0-.41-1.56,3.33,3.33,0,0,0-1.45-1,30.78,30.78,0,0,0-3.27-1.09,10.9,10.9,0,0,1-5.08-2.63,5.82,5.82,0,0,1-1.62-4.21,5.59,5.59,0,0,1,1.09-3.37,7.23,7.23,0,0,1,3.07-2.35,11.42,11.42,0,0,1,4.55-.85A12.71,12.71,0,0,1,330.79,58.61Z" transform="translate(-0.28 -0.36)"/><path class="cls-1" d="M350.78,58.61l-2.13,3.2A10.62,10.62,0,0,0,343,60a4.39,4.39,0,0,0-2.52.62,1.91,1.91,0,0,0-.9,1.64,2.08,2.08,0,0,0,.38,1.28,3.5,3.5,0,0,0,1.39,1,23.11,23.11,0,0,0,3,1,13,13,0,0,1,5.44,2.6,5.83,5.83,0,0,1,1.77,4.53,6.07,6.07,0,0,1-2.73,5.27,11.61,11.61,0,0,1-6.79,1.9,14.35,14.35,0,0,1-5.06-.85A12.27,12.27,0,0,1,333,76.59l2.73-3.08a10.08,10.08,0,0,0,6.15,2.22,5.2,5.2,0,0,0,2.92-.73,2.29,2.29,0,0,0,1.09-2,2.66,2.66,0,0,0-.41-1.56,3.33,3.33,0,0,0-1.45-1,30.78,30.78,0,0,0-3.27-1.09,10.9,10.9,0,0,1-5.08-2.63A5.82,5.82,0,0,1,334,62.5a5.59,5.59,0,0,1,1.09-3.37,7.23,7.23,0,0,1,3.07-2.35,11.42,11.42,0,0,1,4.55-.85A12.71,12.71,0,0,1,350.78,58.61Z" transform="translate(-0.28 -0.36)"/><path class="cls-1" d="M361.13,46.08a3.22,3.22,0,0,1,1,2.37,3.15,3.15,0,0,1-1,2.35,3.42,3.42,0,0,1-2.5.94,3.37,3.37,0,0,1-2.46-.94,3.15,3.15,0,0,1-1-2.35,3.22,3.22,0,0,1,1-2.37,3.32,3.32,0,0,1,2.46-1A3.38,3.38,0,0,1,361.13,46.08Zm0.28,10.48V79.15h-5.47V56.56h5.47Z" transform="translate(-0.28 -0.36)"/><path class="cls-1" d="M385.83,59.06q2.22,3.14,2.22,8.78A16.58,16.58,0,0,1,387,74a9.66,9.66,0,0,1-3.1,4.23,7.65,7.65,0,0,1-4.74,1.52,7.3,7.3,0,0,1-3.35-.77,7.82,7.82,0,0,1-2.63-2.18l-0.34,2.31H368V47.51l5.47-.6V59.13a7.7,7.7,0,0,1,2.71-2.37,7.53,7.53,0,0,1,3.52-.83A7.12,7.12,0,0,1,385.83,59.06Zm-4.74,14.73q1.24-1.9,1.24-6,0-4.27-1.15-6A3.66,3.66,0,0,0,377.93,60q-2.61,0-4.48,3.07v10A5.48,5.48,0,0,0,375.26,75a4.38,4.38,0,0,0,2.37.68A3.91,3.91,0,0,0,381.09,73.79Z" transform="translate(-0.28 -0.36)"/><path class="cls-1" d="M394.69,78.28A5.9,5.9,0,0,1,393.22,74V47.51l5.47-.6v26.9q0,1.58,1.28,1.58a4,4,0,0,0,1.28-.21L402.4,79a8.74,8.74,0,0,1-3.63.77A5.42,5.42,0,0,1,394.69,78.28Z" transform="translate(-0.28 -0.36)"/><path class="cls-1" d="M424.22,69.54H410q0.25,3.29,1.71,4.7a5.28,5.28,0,0,0,3.84,1.41,8,8,0,0,0,2.82-.49,13.14,13.14,0,0,0,2.82-1.52l2.26,3.12a13,13,0,0,1-8.37,3q-5.17,0-8-3.16T404.36,68a15.46,15.46,0,0,1,1.2-6.21A9.86,9.86,0,0,1,409,57.48a10.3,10.3,0,0,1,12.72,1.45q2.6,3,2.6,8.39Q424.35,67.75,424.22,69.54Zm-5.29-3.8q0-5.93-4.4-5.93a3.73,3.73,0,0,0-3.14,1.47A8.77,8.77,0,0,0,410,66h8.88V65.74Z" transform="translate(-0.28 -0.36)"/><path class="cls-1" d="M102.43,100a27.7,27.7,0,0,1-6.19.64,6.21,6.21,0,0,1,3.8,6.06A6.92,6.92,0,0,1,97.87,112,8.3,8.3,0,0,1,92,114a8.9,8.9,0,0,1-2.9-.43,3.76,3.76,0,0,0-1.26,1.13,2.5,2.5,0,0,0-.45,1.43q0,2.31,3.54,2.31h3.63a8,8,0,0,1,5.23,1.6,5.1,5.1,0,0,1,1.94,4.12,5.4,5.4,0,0,1-2.43,4.74q-2.43,1.67-7.26,1.67-5,0-7.15-1.52a5.56,5.56,0,0,1-2.16-4.89H85a4.71,4.71,0,0,0,.68,2.56,3.69,3.69,0,0,0,2.13,1.37,16,16,0,0,0,4.18.43,10.5,10.5,0,0,0,5.47-1.09,3.51,3.51,0,0,0,1.71-3.14,3.2,3.2,0,0,0-1.32-2.75,6.24,6.24,0,0,0-3.71-1H90.52a6.53,6.53,0,0,1-4.08-1.11A3.42,3.42,0,0,1,85,116.69a3.77,3.77,0,0,1,.64-2.09,5.76,5.76,0,0,1,1.79-1.71,6.78,6.78,0,0,1-2.84-2.52,7.19,7.19,0,0,1-.92-3.76A7.1,7.1,0,0,1,86,101.14a8.4,8.4,0,0,1,5.94-2.09,34.24,34.24,0,0,0,5.91-.3,20,20,0,0,0,3.86-1.15Zm-14.75,2.52a5.77,5.77,0,0,0-1.43,4.1,5.55,5.55,0,0,0,1.52,4.14,5.61,5.61,0,0,0,9.76-4.1,5.81,5.81,0,0,0-1.43-4.18A5.56,5.56,0,0,0,91.89,101,5.46,5.46,0,0,0,87.68,102.51Z" transform="translate(-0.28 -0.36)"/><path class="cls-1" d="M122.5,111.65H107.6q0.21,4.35,2.07,6.47a6.19,6.19,0,0,0,4.89,2.11,8.34,8.34,0,0,0,3.1-.53,13.58,13.58,0,0,0,2.92-1.69l1.15,1.58a12.65,12.65,0,0,1-3.42,2,10.61,10.61,0,0,1-3.89.68,8.56,8.56,0,0,1-7-3q-2.52-3-2.52-8.41a16.37,16.37,0,0,1,1.09-6.21,9.32,9.32,0,0,1,3.12-4.14,7.82,7.82,0,0,1,4.72-1.47,7.7,7.7,0,0,1,6.49,2.88q2.22,2.88,2.22,7.92Q122.59,110.79,122.5,111.65Zm-2.35-2.56a9.72,9.72,0,0,0-1.56-5.87A5.39,5.39,0,0,0,114,101.1a5.47,5.47,0,0,0-4.48,2.13q-1.71,2.14-1.88,6.49h12.55v-0.64Z" transform="translate(-0.28 -0.36)"/><path class="cls-1" d="M144.13,100.84a7.31,7.31,0,0,1,1.6,5v16h-2.48V106.22a6,6,0,0,0-1.07-3.93,4,4,0,0,0-3.16-1.24,6.33,6.33,0,0,0-3.78,1.17,12.88,12.88,0,0,0-3.14,3.44v16.18h-2.48V99.52h2.13l0.26,3.8a10.45,10.45,0,0,1,3.25-3.14,8,8,0,0,1,4.23-1.13A5.89,5.89,0,0,1,144.13,100.84Z" transform="translate(-0.28 -0.36)"/><path class="cls-1" d="M170.33,111.65h-14.9q0.21,4.35,2.07,6.47a6.19,6.19,0,0,0,4.89,2.11,8.34,8.34,0,0,0,3.1-.53,13.58,13.58,0,0,0,2.92-1.69l1.15,1.58a12.65,12.65,0,0,1-3.42,2,10.61,10.61,0,0,1-3.89.68,8.56,8.56,0,0,1-7-3q-2.52-3-2.52-8.41a16.37,16.37,0,0,1,1.09-6.21,9.32,9.32,0,0,1,3.12-4.14,7.82,7.82,0,0,1,4.72-1.47,7.7,7.7,0,0,1,6.49,2.88q2.22,2.88,2.22,7.92Q170.41,110.79,170.33,111.65ZM168,109.08a9.72,9.72,0,0,0-1.56-5.87,5.39,5.39,0,0,0-4.63-2.11,5.47,5.47,0,0,0-4.48,2.13q-1.71,2.14-1.88,6.49H168v-0.64Zm-9.44-20.62,8,4.4-0.77,1.45-8.37-3.63Z" transform="translate(-0.28 -0.36)"/><path class="cls-1" d="M192.28,99.52l-7.73,22.33h-3.08l-8-22.33h2.73L183,119.67l6.62-20.15h2.65Z" transform="translate(-0.28 -0.36)"/><path class="cls-1" d="M213.11,111.65h-14.9q0.21,4.35,2.07,6.47a6.19,6.19,0,0,0,4.89,2.11,8.34,8.34,0,0,0,3.1-.53,13.58,13.58,0,0,0,2.92-1.69l1.15,1.58a12.65,12.65,0,0,1-3.42,2,10.61,10.61,0,0,1-3.89.68,8.56,8.56,0,0,1-7-3q-2.52-3-2.52-8.41a16.37,16.37,0,0,1,1.09-6.21,9.32,9.32,0,0,1,3.12-4.14,7.82,7.82,0,0,1,4.72-1.47,7.7,7.7,0,0,1,6.49,2.88q2.22,2.88,2.22,7.92Q213.2,110.79,213.11,111.65Zm-2.35-2.56a9.72,9.72,0,0,0-1.56-5.87,5.39,5.39,0,0,0-4.63-2.11,5.47,5.47,0,0,0-4.48,2.13q-1.71,2.14-1.88,6.49h12.55v-0.64Z" transform="translate(-0.28 -0.36)"/><path class="cls-2" d="M54.46,76.58l0.06-.41,0.7-5.71c0.25-2,.45-3.92.88-6.16a84.92,84.92,0,0,1,7.75-23.82A75.93,75.93,0,0,1,74,25.37l1.59-1.82,1.65-1.77,0.42-.44,0.53-.53L79,20l1.67-1.62c1.28-1.12,2.64-2.3,4-3.37s2.68-2.07,4.1-3a70.21,70.21,0,0,1,17.89-8.68,61.88,61.88,0,0,1,17.87-3,80.5,80.5,0,0,1,8.54.26,23.52,23.52,0,0,1,3.47.51,17,17,0,0,1,3.21.89,23.62,23.62,0,0,0-2.48-.28l-2.47-.21c-1.65-.1-3.3-0.08-4.94-0.09s-3.28.18-4.9,0.42l-2.42.41-1.2.23-1.19.32a22.14,22.14,0,0,1,2.94-.11c0.95,0,1.86,0,2.75.07l2.62,0.29a23.82,23.82,0,0,1,2.56.38l2.58,0.47c0.87,0.15,1.75.41,2.66,0.6,1.84,0.35,3.74,1,5.91,1.44-3.89.58-8.17,0.68-13,1.14a77.43,77.43,0,0,0-15.75,3c-0.81.26-1.6,0.55-2.39,0.85s-1.53.71-2.28,1.07c-1.51.69-2.93,1.56-4.4,2.27-0.77.35-1.52,0.78-2.3,1.14s-1.59.71-2.36,1.12a40,40,0,0,0-4.62,2.64l-1.41,1c-0.46.33-.89,0.72-1.32,1.08-0.84.74-1.77,1.45-2.49,2.22s-1.5,1.46-2.28,2.28-1.6,1.74-2.42,2.57l-1.63,1.83c-0.58.64-1.11,1.33-1.67,2-1.09,1.34-2.15,2.71-3.14,4.13a67,67,0,0,0-5.32,8.89A77.37,77.37,0,0,0,66.9,65l-0.26,1.38L66.52,67l-0.1.61L66,70.25l-0.74,5.53-0.21,1.43c-0.07.45-.17,1.1-0.27,1.63a16.24,16.24,0,0,1-1.31,4,10.12,10.12,0,0,1-1.67,2.39,9.43,9.43,0,0,1-1.37,1.16,8.9,8.9,0,0,1-1.74.87,7.86,7.86,0,0,1-1.81.41l-0.87.06c-0.26,0-.51,0-0.76,0a8.09,8.09,0,0,1-1.37-.21,9.13,9.13,0,0,1-1.15-.33,17.59,17.59,0,0,1-3.46-1.69L47,83.9c-1.46-1-2.92-1.89-4.38-2.79q-4.39-2.68-8.86-4.89c1.59,0.19,3.87,1.15,4.85.84A85.59,85.59,0,0,0,25.27,72c-4.64-1.38-9.49-1.7-13.31-.7a15.84,15.84,0,0,1,7.24-1.42,28.9,28.9,0,0,1,6.16.86c-0.15.23-1.11-.08-1.81-0.19a5,5,0,0,0,2.4.79c1,0.12,1.85.15,2.38,0.22a18.46,18.46,0,0,0-4.62-1.67A45.67,45.67,0,0,0,18.25,69a6.57,6.57,0,0,1,3.21-.16c1.37,0.15,2.79.44,3.65,0.42A28.6,28.6,0,0,0,11.56,68.1a15,15,0,0,0-7.12,3.35,13.8,13.8,0,0,0-2.59,3,14.09,14.09,0,0,0-.93,1.71c-0.13.3-.28,0.63-0.38,0.91l-0.27.78L0.39,77c0.06-.34.15-0.71,0.24-1.08a16.69,16.69,0,0,1,.68-2.07,14.45,14.45,0,0,1,2.45-4,15.1,15.1,0,0,1,3.89-3.19A16.22,16.22,0,0,1,10,65.53l1.15-.4c0.44-.12.94-0.27,1.35-0.36A30.59,30.59,0,0,1,23.6,64.4c0.93,0.14,1.86.29,2.79,0.49S28,65.26,29,65.5c1.81,0.45,3.52.95,5.31,1.53a82.19,82.19,0,0,1,10.57,4.28C46.6,72.15,48.33,73,50,74q1.28,0.71,2.54,1.46l1.26,0.75,0.63,0.36h0Z" transform="translate(-0.28 -0.36)"/></svg>